# xmcd CD database file
#
# Track frame offsets:
#	150
#	26715
#	56156
#	76573
#	112196
#	149176
#	182244
#	208122
#	230117
#	263898
#	286386
#
# Disc length: 4284 seconds
#
# Revision: 0
# Processed by: cddbd v1.5.2PL0 Copyright (c) Steve Scherf et al.
# Submitted via: CDex 1.51
#
DISCID=af10ba0b
DTITLE=Various Artist - Blue Note Highlights [CD5) Organ
DYEAR=2009
DGENRE=Jazz
TTITLE0=Lonnie Smith - Seesaw
TTITLE1=Jimmy Smith - Blues No. 1
TTITLE2=Jimmy McGriff - Girl Talk
TTITLE3=Charles Earland - Turtle Walk
TTITLE4="Baby Face" Willette - Willow Weep For Me
TTITLE5=Larry Young - The Moontrane
TTITLE6=John Patton - Pig Foots
TTITLE7=Larry Goldings - Kool
TTITLE8=John Patton - Our Miss Brooks
TTITLE9=Freddie Roach - T'Ain't What You Do
TTITLE10=Shirley Scott - Trouble #02 
EXTD=YEAR: 2009
EXTT0=
EXTT1=
EXTT2=
EXTT3=
EXTT4=
EXTT5=
EXTT6=
EXTT7=
EXTT8=
EXTT9=
EXTT10=
PLAYORDER=
